Genre:Action | Drama | Thriller
Language:English
IMDb:http://www.imdb.com/title/tt0477080/
Source:.DVD9 R5/Audio:T0XiC-iNK.Thx



Format : Matroska
File size : 1.09 GiB
Duration : 1h 34mn
Overall bit rate : 1 646 Kbps


Video
Format settings, CABAC : Yes
Format settings, ReFrames : 4 frames
Format settings, GOP : M=4, N=8
Codec ID : V_MPEG4/ISO/AVC
Duration : 1h 34mn
Bit rate : 1 274 Kbps
Width : 720 pixels
Height : 304 pixels
Display aspect ratio : 2.35:1
Frame rate mode : Variable
Frame rate : 25.000 fps
Color space : YUV
Chroma subsampling : 4:2:0
Bit depth : 8 bits
Scan type : Progressive
Bits/(Pixel*Frame) : 0.233
Stream size : 831 MiB (75%)
Writing library : x264


Audio
ID : 2
Format : AC-3
Format/Info : Audio Coding 3
Mode extension : CM (complete main)
Codec ID : A_AC3
Duration : 1h 34mn
Bit rate mode : Constant
Bit rate : 384 Kbps
Channel(s) : 6 channels
Channel positions : Front: L C R, Side: L R, LFE
Sampling rate : 48.0 KHz
Bit depth : 16 bits
Video delay : -1mn 5s
Stream size : 259 MiB (23%)
Language : English


Plot:
With an unmanned, half-mile-long freight train barreling toward a city, a veteran engineer and a young conductor race against the clock to prevent a catastrophe






================================== 
http://thepiratebay.org/user/hiest
==================================